<?xml version="1.0" encoding="utf-8" standalone="no"?>
<!DOCTYPE svg PUBLIC "-//W3C//DTD SVG 1.1//EN"
  "http://www.w3.org/Graphics/SVG/1.1/DTD/svg11.dtd">
<svg xmlns:xlink="http://www.w3.org/1999/xlink" width="332.184375pt" height="272.237812pt" viewBox="0 0 332.184375 272.237812" xmlns="http://www.w3.org/2000/svg" version="1.1">
 <metadata>
  <rdf:RDF xmlns:dc="http://purl.org/dc/elements/1.1/" xmlns:cc="http://creativecommons.org/ns#" xmlns:rdf="http://www.w3.org/1999/02/22-rdf-syntax-ns#">
   <cc:Work>
    <dc:type rdf:resource="http://purl.org/dc/dcmitype/StillImage"/>
    <dc:date>2023-01-15T14:03:49.266689</dc:date>
    <dc:format>image/svg+xml</dc:format>
    <dc:creator>
     <cc:Agent>
      <dc:title>Matplotlib v3.6.2, https://matplotlib.org/</dc:title>
     </cc:Agent>
    </dc:creator>
   </cc:Work>
  </rdf:RDF>
 </metadata>
 <defs>
  <style type="text/css">*{stroke-linejoin: round; stroke-linecap: butt}</style>
 </defs>
 <g id="figure_1">
  <g id="patch_1">
   <path d="M -0 272.237812 
L 332.184375 272.237812 
L 332.184375 0 
L -0 0 
z
" style="fill: #ffffff"/>
  </g>
  <g id="axes_1">
   <g id="patch_2">
    <path d="M 45.984375 228.96 
L 324.984375 228.96 
L 324.984375 7.2 
L 45.984375 7.2 
z
" style="fill: #ffffff"/>
   </g>
   <g id="matplotlib.axis_1">
    <g id="xtick_1">
     <g id="text_1">
      <!-- 1920 -->
      <g style="fill: #262626" transform="translate(56.848869 245.849375) scale(0.12 -0.12)">
       <defs>
        <path id="ArialMT-31" d="M 2384 0 
L 1822 0 
L 1822 3584 
Q 1619 3391 1289 3197 
Q 959 3003 697 2906 
L 697 3450 
Q 1169 3672 1522 3987 
Q 1875 4303 2022 4600 
L 2384 4600 
L 2384 0 
z
" transform="scale(0.015625)"/>
        <path id="ArialMT-39" d="M 350 1059 
L 891 1109 
Q 959 728 1153 556 
Q 1347 384 1650 384 
Q 1909 384 2104 503 
Q 2300 622 2425 820 
Q 2550 1019 2634 1356 
Q 2719 1694 2719 2044 
Q 2719 2081 2716 2156 
Q 2547 1888 2255 1720 
Q 1963 1553 1622 1553 
Q 1053 1553 659 1965 
Q 266 2378 266 3053 
Q 266 3750 677 4175 
Q 1088 4600 1706 4600 
Q 2153 4600 2523 4359 
Q 2894 4119 3086 3673 
Q 3278 3228 3278 2384 
Q 3278 1506 3087 986 
Q 2897 466 2520 194 
Q 2144 -78 1638 -78 
Q 1100 -78 759 220 
Q 419 519 350 1059 
z
M 2653 3081 
Q 2653 3566 2395 3850 
Q 2138 4134 1775 4134 
Q 1400 4134 1122 3828 
Q 844 3522 844 3034 
Q 844 2597 1108 2323 
Q 1372 2050 1759 2050 
Q 2150 2050 2401 2323 
Q 2653 2597 2653 3081 
z
" transform="scale(0.015625)"/>
        <path id="ArialMT-32" d="M 3222 541 
L 3222 0 
L 194 0 
Q 188 203 259 391 
Q 375 700 629 1000 
Q 884 1300 1366 1694 
Q 2113 2306 2375 2664 
Q 2638 3022 2638 3341 
Q 2638 3675 2398 3904 
Q 2159 4134 1775 4134 
Q 1369 4134 1125 3890 
Q 881 3647 878 3216 
L 300 3275 
Q 359 3922 746 4261 
Q 1134 4600 1788 4600 
Q 2447 4600 2831 4234 
Q 3216 3869 3216 3328 
Q 3216 3053 3103 2787 
Q 2991 2522 2730 2228 
Q 2469 1934 1863 1422 
Q 1356 997 1212 845 
Q 1069 694 975 541 
L 3222 541 
z
" transform="scale(0.015625)"/>
        <path id="ArialMT-30" d="M 266 2259 
Q 266 3072 433 3567 
Q 600 4063 929 4331 
Q 1259 4600 1759 4600 
Q 2128 4600 2406 4451 
Q 2684 4303 2865 4023 
Q 3047 3744 3150 3342 
Q 3253 2941 3253 2259 
Q 3253 1453 3087 958 
Q 2922 463 2592 192 
Q 2263 -78 1759 -78 
Q 1097 -78 719 397 
Q 266 969 266 2259 
z
M 844 2259 
Q 844 1131 1108 757 
Q 1372 384 1759 384 
Q 2147 384 2411 759 
Q 2675 1134 2675 2259 
Q 2675 3391 2411 3762 
Q 2147 4134 1753 4134 
Q 1366 4134 1134 3806 
Q 844 3388 844 2259 
z
" transform="scale(0.015625)"/>
       </defs>
       <use xlink:href="#ArialMT-31"/>
       <use xlink:href="#ArialMT-39" x="55.615234"/>
       <use xlink:href="#ArialMT-32" x="111.230469"/>
       <use xlink:href="#ArialMT-30" x="166.845703"/>
      </g>
     </g>
    </g>
    <g id="xtick_2">
     <g id="text_2">
      <!-- 1940 -->
      <g style="fill: #262626" transform="translate(102.964571 245.849375) scale(0.12 -0.12)">
       <defs>
        <path id="ArialMT-34" d="M 2069 0 
L 2069 1097 
L 81 1097 
L 81 1613 
L 2172 4581 
L 2631 4581 
L 2631 1613 
L 3250 1613 
L 3250 1097 
L 2631 1097 
L 2631 0 
L 2069 0 
z
M 2069 1613 
L 2069 3678 
L 634 1613 
L 2069 1613 
z
" transform="scale(0.015625)"/>
       </defs>
       <use xlink:href="#ArialMT-31"/>
       <use xlink:href="#ArialMT-39" x="55.615234"/>
       <use xlink:href="#ArialMT-34" x="111.230469"/>
       <use xlink:href="#ArialMT-30" x="166.845703"/>
      </g>
     </g>
    </g>
    <g id="xtick_3">
     <g id="text_3">
      <!-- 1960 -->
      <g style="fill: #262626" transform="translate(149.080274 245.849375) scale(0.12 -0.12)">
       <defs>
        <path id="ArialMT-36" d="M 3184 3459 
L 2625 3416 
Q 2550 3747 2413 3897 
Q 2184 4138 1850 4138 
Q 1581 4138 1378 3988 
Q 1113 3794 959 3422 
Q 806 3050 800 2363 
Q 1003 2672 1297 2822 
Q 1591 2972 1913 2972 
Q 2475 2972 2870 2558 
Q 3266 2144 3266 1488 
Q 3266 1056 3080 686 
Q 2894 316 2569 119 
Q 2244 -78 1831 -78 
Q 1128 -78 684 439 
Q 241 956 241 2144 
Q 241 3472 731 4075 
Q 1159 4600 1884 4600 
Q 2425 4600 2770 4297 
Q 3116 3994 3184 3459 
z
M 888 1484 
Q 888 1194 1011 928 
Q 1134 663 1356 523 
Q 1578 384 1822 384 
Q 2178 384 2434 671 
Q 2691 959 2691 1453 
Q 2691 1928 2437 2201 
Q 2184 2475 1800 2475 
Q 1419 2475 1153 2201 
Q 888 1928 888 1484 
z
" transform="scale(0.015625)"/>
       </defs>
       <use xlink:href="#ArialMT-31"/>
       <use xlink:href="#ArialMT-39" x="55.615234"/>
       <use xlink:href="#ArialMT-36" x="111.230469"/>
       <use xlink:href="#ArialMT-30" x="166.845703"/>
      </g>
     </g>
    </g>
    <g id="xtick_4">
     <g id="text_4">
      <!-- 1980 -->
      <g style="fill: #262626" transform="translate(195.195976 245.849375) scale(0.12 -0.12)">
       <defs>
        <path id="ArialMT-38" d="M 1131 2484 
Q 781 2613 612 2850 
Q 444 3088 444 3419 
Q 444 3919 803 4259 
Q 1163 4600 1759 4600 
Q 2359 4600 2725 4251 
Q 3091 3903 3091 3403 
Q 3091 3084 2923 2848 
Q 2756 2613 2416 2484 
Q 2838 2347 3058 2040 
Q 3278 1734 3278 1309 
Q 3278 722 2862 322 
Q 2447 -78 1769 -78 
Q 1091 -78 675 323 
Q 259 725 259 1325 
Q 259 1772 486 2073 
Q 713 2375 1131 2484 
z
M 1019 3438 
Q 1019 3113 1228 2906 
Q 1438 2700 1772 2700 
Q 2097 2700 2305 2904 
Q 2513 3109 2513 3406 
Q 2513 3716 2298 3927 
Q 2084 4138 1766 4138 
Q 1444 4138 1231 3931 
Q 1019 3725 1019 3438 
z
M 838 1322 
Q 838 1081 952 856 
Q 1066 631 1291 507 
Q 1516 384 1775 384 
Q 2178 384 2440 643 
Q 2703 903 2703 1303 
Q 2703 1709 2433 1975 
Q 2163 2241 1756 2241 
Q 1359 2241 1098 1978 
Q 838 1716 838 1322 
z
" transform="scale(0.015625)"/>
       </defs>
       <use xlink:href="#ArialMT-31"/>
       <use xlink:href="#ArialMT-39" x="55.615234"/>
       <use xlink:href="#ArialMT-38" x="111.230469"/>
       <use xlink:href="#ArialMT-30" x="166.845703"/>
      </g>
     </g>
    </g>
    <g id="xtick_5">
     <g id="text_5">
      <!-- 2000 -->
      <g style="fill: #262626" transform="translate(241.311679 245.849375) scale(0.12 -0.12)">
       <use xlink:href="#ArialMT-32"/>
       <use xlink:href="#ArialMT-30" x="55.615234"/>
       <use xlink:href="#ArialMT-30" x="111.230469"/>
       <use xlink:href="#ArialMT-30" x="166.845703"/>
      </g>
     </g>
    </g>
    <g id="xtick_6">
     <g id="text_6">
      <!-- 2020 -->
      <g style="fill: #262626" transform="translate(287.427381 245.849375) scale(0.12 -0.12)">
       <use xlink:href="#ArialMT-32"/>
       <use xlink:href="#ArialMT-30" x="55.615234"/>
       <use xlink:href="#ArialMT-32" x="111.230469"/>
       <use xlink:href="#ArialMT-30" x="166.845703"/>
      </g>
     </g>
    </g>
    <g id="text_7">
     <!-- year -->
     <g style="fill: #262626" transform="translate(171.868281 262.09125) scale(0.14 -0.14)">
      <defs>
       <path id="ArialMT-79" d="M 397 -1278 
L 334 -750 
Q 519 -800 656 -800 
Q 844 -800 956 -737 
Q 1069 -675 1141 -563 
Q 1194 -478 1313 -144 
Q 1328 -97 1363 -6 
L 103 3319 
L 709 3319 
L 1400 1397 
Q 1534 1031 1641 628 
Q 1738 1016 1872 1384 
L 2581 3319 
L 3144 3319 
L 1881 -56 
Q 1678 -603 1566 -809 
Q 1416 -1088 1222 -1217 
Q 1028 -1347 759 -1347 
Q 597 -1347 397 -1278 
z
" transform="scale(0.015625)"/>
       <path id="ArialMT-65" d="M 2694 1069 
L 3275 997 
Q 3138 488 2766 206 
Q 2394 -75 1816 -75 
Q 1088 -75 661 373 
Q 234 822 234 1631 
Q 234 2469 665 2931 
Q 1097 3394 1784 3394 
Q 2450 3394 2872 2941 
Q 3294 2488 3294 1666 
Q 3294 1616 3291 1516 
L 816 1516 
Q 847 969 1125 678 
Q 1403 388 1819 388 
Q 2128 388 2347 550 
Q 2566 713 2694 1069 
z
M 847 1978 
L 2700 1978 
Q 2663 2397 2488 2606 
Q 2219 2931 1791 2931 
Q 1403 2931 1139 2672 
Q 875 2413 847 1978 
z
" transform="scale(0.015625)"/>
       <path id="ArialMT-61" d="M 2588 409 
Q 2275 144 1986 34 
Q 1697 -75 1366 -75 
Q 819 -75 525 192 
Q 231 459 231 875 
Q 231 1119 342 1320 
Q 453 1522 633 1644 
Q 813 1766 1038 1828 
Q 1203 1872 1538 1913 
Q 2219 1994 2541 2106 
Q 2544 2222 2544 2253 
Q 2544 2597 2384 2738 
Q 2169 2928 1744 2928 
Q 1347 2928 1158 2789 
Q 969 2650 878 2297 
L 328 2372 
Q 403 2725 575 2942 
Q 747 3159 1072 3276 
Q 1397 3394 1825 3394 
Q 2250 3394 2515 3294 
Q 2781 3194 2906 3042 
Q 3031 2891 3081 2659 
Q 3109 2516 3109 2141 
L 3109 1391 
Q 3109 606 3145 398 
Q 3181 191 3288 0 
L 2700 0 
Q 2613 175 2588 409 
z
M 2541 1666 
Q 2234 1541 1622 1453 
Q 1275 1403 1131 1340 
Q 988 1278 909 1158 
Q 831 1038 831 891 
Q 831 666 1001 516 
Q 1172 366 1500 366 
Q 1825 366 2078 508 
Q 2331 650 2450 897 
Q 2541 1088 2541 1459 
L 2541 1666 
z
" transform="scale(0.015625)"/>
       <path id="ArialMT-72" d="M 416 0 
L 416 3319 
L 922 3319 
L 922 2816 
Q 1116 3169 1280 3281 
Q 1444 3394 1641 3394 
Q 1925 3394 2219 3213 
L 2025 2691 
Q 1819 2813 1613 2813 
Q 1428 2813 1281 2702 
Q 1134 2591 1072 2394 
Q 978 2094 978 1738 
L 978 0 
L 416 0 
z
" transform="scale(0.015625)"/>
      </defs>
      <use xlink:href="#ArialMT-79"/>
      <use xlink:href="#ArialMT-65" x="50"/>
      <use xlink:href="#ArialMT-61" x="105.615234"/>
      <use xlink:href="#ArialMT-72" x="161.230469"/>
     </g>
    </g>
   </g>
   <g id="matplotlib.axis_2">
    <g id="ytick_1">
     <g id="text_8">
      <!-- 0 -->
      <g style="fill: #262626" transform="translate(31.01125 233.254687) scale(0.12 -0.12)">
       <use xlink:href="#ArialMT-30"/>
      </g>
     </g>
    </g>
    <g id="ytick_2">
     <g id="text_9">
      <!-- 5 -->
      <g style="fill: #262626" transform="translate(31.01125 194.143576) scale(0.12 -0.12)">
       <defs>
        <path id="ArialMT-35" d="M 266 1200 
L 856 1250 
Q 922 819 1161 601 
Q 1400 384 1738 384 
Q 2144 384 2425 690 
Q 2706 997 2706 1503 
Q 2706 1984 2436 2262 
Q 2166 2541 1728 2541 
Q 1456 2541 1237 2417 
Q 1019 2294 894 2097 
L 366 2166 
L 809 4519 
L 3088 4519 
L 3088 3981 
L 1259 3981 
L 1013 2750 
Q 1425 3038 1878 3038 
Q 2478 3038 2890 2622 
Q 3303 2206 3303 1553 
Q 3303 931 2941 478 
Q 2500 -78 1738 -78 
Q 1113 -78 717 272 
Q 322 622 266 1200 
z
" transform="scale(0.015625)"/>
       </defs>
       <use xlink:href="#ArialMT-35"/>
      </g>
     </g>
    </g>
    <g id="ytick_3">
     <g id="text_10">
      <!-- 10 -->
      <g style="fill: #262626" transform="translate(24.338125 155.032465) scale(0.12 -0.12)">
       <use xlink:href="#ArialMT-31"/>
       <use xlink:href="#ArialMT-30" x="55.615234"/>
      </g>
     </g>
    </g>
    <g id="ytick_4">
     <g id="text_11">
      <!-- 15 -->
      <g style="fill: #262626" transform="translate(24.338125 115.921354) scale(0.12 -0.12)">
       <use xlink:href="#ArialMT-31"/>
       <use xlink:href="#ArialMT-35" x="55.615234"/>
      </g>
     </g>
    </g>
    <g id="ytick_5">
     <g id="text_12">
      <!-- 20 -->
      <g style="fill: #262626" transform="translate(24.338125 76.810243) scale(0.12 -0.12)">
       <use xlink:href="#ArialMT-32"/>
       <use xlink:href="#ArialMT-30" x="55.615234"/>
      </g>
     </g>
    </g>
    <g id="ytick_6">
     <g id="text_13">
      <!-- 25 -->
      <g style="fill: #262626" transform="translate(24.338125 37.699132) scale(0.12 -0.12)">
       <use xlink:href="#ArialMT-32"/>
       <use xlink:href="#ArialMT-35" x="55.615234"/>
      </g>
     </g>
    </g>
    <g id="text_14">
     <!-- frequency -->
     <g style="fill: #262626" transform="translate(17.391563 148.81875) rotate(-90) scale(0.14 -0.14)">
      <defs>
       <path id="ArialMT-66" d="M 556 0 
L 556 2881 
L 59 2881 
L 59 3319 
L 556 3319 
L 556 3672 
Q 556 4006 616 4169 
Q 697 4388 901 4523 
Q 1106 4659 1475 4659 
Q 1713 4659 2000 4603 
L 1916 4113 
Q 1741 4144 1584 4144 
Q 1328 4144 1222 4034 
Q 1116 3925 1116 3625 
L 1116 3319 
L 1763 3319 
L 1763 2881 
L 1116 2881 
L 1116 0 
L 556 0 
z
" transform="scale(0.015625)"/>
       <path id="ArialMT-71" d="M 2538 -1272 
L 2538 353 
Q 2406 169 2170 47 
Q 1934 -75 1669 -75 
Q 1078 -75 651 397 
Q 225 869 225 1691 
Q 225 2191 398 2587 
Q 572 2984 901 3189 
Q 1231 3394 1625 3394 
Q 2241 3394 2594 2875 
L 2594 3319 
L 3100 3319 
L 3100 -1272 
L 2538 -1272 
z
M 803 1669 
Q 803 1028 1072 708 
Q 1341 388 1716 388 
Q 2075 388 2334 692 
Q 2594 997 2594 1619 
Q 2594 2281 2320 2615 
Q 2047 2950 1678 2950 
Q 1313 2950 1058 2639 
Q 803 2328 803 1669 
z
" transform="scale(0.015625)"/>
       <path id="ArialMT-75" d="M 2597 0 
L 2597 488 
Q 2209 -75 1544 -75 
Q 1250 -75 995 37 
Q 741 150 617 320 
Q 494 491 444 738 
Q 409 903 409 1263 
L 409 3319 
L 972 3319 
L 972 1478 
Q 972 1038 1006 884 
Q 1059 663 1231 536 
Q 1403 409 1656 409 
Q 1909 409 2131 539 
Q 2353 669 2445 892 
Q 2538 1116 2538 1541 
L 2538 3319 
L 3100 3319 
L 3100 0 
L 2597 0 
z
" transform="scale(0.015625)"/>
       <path id="ArialMT-6e" d="M 422 0 
L 422 3319 
L 928 3319 
L 928 2847 
Q 1294 3394 1984 3394 
Q 2284 3394 2536 3286 
Q 2788 3178 2913 3003 
Q 3038 2828 3088 2588 
Q 3119 2431 3119 2041 
L 3119 0 
L 2556 0 
L 2556 2019 
Q 2556 2363 2490 2533 
Q 2425 2703 2258 2804 
Q 2091 2906 1866 2906 
Q 1506 2906 1245 2678 
Q 984 2450 984 1813 
L 984 0 
L 422 0 
z
" transform="scale(0.015625)"/>
       <path id="ArialMT-63" d="M 2588 1216 
L 3141 1144 
Q 3050 572 2676 248 
Q 2303 -75 1759 -75 
Q 1078 -75 664 370 
Q 250 816 250 1647 
Q 250 2184 428 2587 
Q 606 2991 970 3192 
Q 1334 3394 1763 3394 
Q 2303 3394 2647 3120 
Q 2991 2847 3088 2344 
L 2541 2259 
Q 2463 2594 2264 2762 
Q 2066 2931 1784 2931 
Q 1359 2931 1093 2626 
Q 828 2322 828 1663 
Q 828 994 1084 691 
Q 1341 388 1753 388 
Q 2084 388 2306 591 
Q 2528 794 2588 1216 
z
" transform="scale(0.015625)"/>
      </defs>
      <use xlink:href="#ArialMT-66"/>
      <use xlink:href="#ArialMT-72" x="27.783203"/>
      <use xlink:href="#ArialMT-65" x="61.083984"/>
      <use xlink:href="#ArialMT-71" x="116.699219"/>
      <use xlink:href="#ArialMT-75" x="172.314453"/>
      <use xlink:href="#ArialMT-65" x="227.929688"/>
      <use xlink:href="#ArialMT-6e" x="283.544922"/>
      <use xlink:href="#ArialMT-63" x="339.160156"/>
      <use xlink:href="#ArialMT-79" x="389.160156"/>
     </g>
    </g>
   </g>
   <g id="patch_3">
    <path d="M 58.666193 228.96 
L 81.724044 228.96 
L 81.724044 228.96 
L 58.666193 228.96 
z
" clip-path="url(#p8000722305)" style="fill: #dd8452; fill-opacity: 0.3; stroke: #ffffff; stroke-width: 0.8; stroke-linejoin: miter"/>
   </g>
   <g id="patch_4">
    <path d="M 81.724044 228.96 
L 104.781896 228.96 
L 104.781896 228.96 
L 81.724044 228.96 
z
" clip-path="url(#p8000722305)" style="fill: #dd8452; fill-opacity: 0.3; stroke: #ffffff; stroke-width: 0.8; stroke-linejoin: miter"/>
   </g>
   <g id="patch_5">
    <path d="M 104.781896 228.96 
L 127.839747 228.96 
L 127.839747 228.96 
L 104.781896 228.96 
z
" clip-path="url(#p8000722305)" style="fill: #dd8452; fill-opacity: 0.3; stroke: #ffffff; stroke-width: 0.8; stroke-linejoin: miter"/>
   </g>
   <g id="patch_6">
    <path d="M 127.839747 228.96 
L 150.897598 228.96 
L 150.897598 228.96 
L 127.839747 228.96 
z
" clip-path="url(#p8000722305)" style="fill: #dd8452; fill-opacity: 0.3; stroke: #ffffff; stroke-width: 0.8; stroke-linejoin: miter"/>
   </g>
   <g id="patch_7">
    <path d="M 150.897598 228.96 
L 173.955449 228.96 
L 173.955449 228.96 
L 150.897598 228.96 
z
" clip-path="url(#p8000722305)" style="fill: #dd8452; fill-opacity: 0.3; stroke: #ffffff; stroke-width: 0.8; stroke-linejoin: miter"/>
   </g>
   <g id="patch_8">
    <path d="M 173.955449 228.96 
L 197.013301 228.96 
L 197.013301 166.382222 
L 173.955449 166.382222 
z
" clip-path="url(#p8000722305)" style="fill: #dd8452; fill-opacity: 0.3; stroke: #ffffff; stroke-width: 0.8; stroke-linejoin: miter"/>
   </g>
   <g id="patch_9">
    <path d="M 197.013301 228.96 
L 220.071152 228.96 
L 220.071152 25.582222 
L 197.013301 25.582222 
z
" clip-path="url(#p8000722305)" style="fill: #dd8452; fill-opacity: 0.3; stroke: #ffffff; stroke-width: 0.8; stroke-linejoin: miter"/>
   </g>
   <g id="patch_10">
    <path d="M 220.071152 228.96 
L 243.129003 228.96 
L 243.129003 80.337778 
L 220.071152 80.337778 
z
" clip-path="url(#p8000722305)" style="fill: #dd8452; fill-opacity: 0.3; stroke: #ffffff; stroke-width: 0.8; stroke-linejoin: miter"/>
   </g>
   <g id="patch_11">
    <path d="M 243.129003 228.96 
L 266.186854 228.96 
L 266.186854 49.048889 
L 243.129003 49.048889 
z
" clip-path="url(#p8000722305)" style="fill: #dd8452; fill-opacity: 0.3; stroke: #ffffff; stroke-width: 0.8; stroke-linejoin: miter"/>
   </g>
   <g id="patch_12">
    <path d="M 266.186854 228.96 
L 289.244706 228.96 
L 289.244706 64.693333 
L 266.186854 64.693333 
z
" clip-path="url(#p8000722305)" style="fill: #dd8452; fill-opacity: 0.3; stroke: #ffffff; stroke-width: 0.8; stroke-linejoin: miter"/>
   </g>
   <g id="patch_13">
    <path d="M 289.244706 228.96 
L 312.302557 228.96 
L 312.302557 205.493333 
L 289.244706 205.493333 
z
" clip-path="url(#p8000722305)" style="fill: #dd8452; fill-opacity: 0.3; stroke: #ffffff; stroke-width: 0.8; stroke-linejoin: miter"/>
   </g>
   <g id="patch_14">
    <path d="M 58.666193 228.96 
L 81.724044 228.96 
L 81.724044 221.137778 
L 58.666193 221.137778 
z
" clip-path="url(#p8000722305)" style="fill: #4c72b0; fill-opacity: 0.3; stroke: #ffffff; stroke-width: 0.8; stroke-linejoin: miter"/>
   </g>
   <g id="patch_15">
    <path d="M 81.724044 228.96 
L 104.781896 228.96 
L 104.781896 221.137778 
L 81.724044 221.137778 
z
" clip-path="url(#p8000722305)" style="fill: #4c72b0; fill-opacity: 0.3; stroke: #ffffff; stroke-width: 0.8; stroke-linejoin: miter"/>
   </g>
   <g id="patch_16">
    <path d="M 104.781896 228.96 
L 127.839747 228.96 
L 127.839747 221.137778 
L 104.781896 221.137778 
z
" clip-path="url(#p8000722305)" style="fill: #4c72b0; fill-opacity: 0.3; stroke: #ffffff; stroke-width: 0.8; stroke-linejoin: miter"/>
   </g>
   <g id="patch_17">
    <path d="M 127.839747 228.96 
L 150.897598 228.96 
L 150.897598 221.137778 
L 127.839747 221.137778 
z
" clip-path="url(#p8000722305)" style="fill: #4c72b0; fill-opacity: 0.3; stroke: #ffffff; stroke-width: 0.8; stroke-linejoin: miter"/>
   </g>
   <g id="patch_18">
    <path d="M 150.897598 228.96 
L 173.955449 228.96 
L 173.955449 174.204444 
L 150.897598 174.204444 
z
" clip-path="url(#p8000722305)" style="fill: #4c72b0; fill-opacity: 0.3; stroke: #ffffff; stroke-width: 0.8; stroke-linejoin: miter"/>
   </g>
   <g id="patch_19">
    <path d="M 173.955449 228.96 
L 197.013301 228.96 
L 197.013301 150.737778 
L 173.955449 150.737778 
z
" clip-path="url(#p8000722305)" style="fill: #4c72b0; fill-opacity: 0.3; stroke: #ffffff; stroke-width: 0.8; stroke-linejoin: miter"/>
   </g>
   <g id="patch_20">
    <path d="M 197.013301 228.96 
L 220.071152 228.96 
L 220.071152 17.76 
L 197.013301 17.76 
z
" clip-path="url(#p8000722305)" style="fill: #4c72b0; fill-opacity: 0.3; stroke: #ffffff; stroke-width: 0.8; stroke-linejoin: miter"/>
   </g>
   <g id="patch_21">
    <path d="M 220.071152 228.96 
L 243.129003 228.96 
L 243.129003 88.16 
L 220.071152 88.16 
z
" clip-path="url(#p8000722305)" style="fill: #4c72b0; fill-opacity: 0.3; stroke: #ffffff; stroke-width: 0.8; stroke-linejoin: miter"/>
   </g>
   <g id="patch_22">
    <path d="M 243.129003 228.96 
L 266.186854 228.96 
L 266.186854 189.848889 
L 243.129003 189.848889 
z
" clip-path="url(#p8000722305)" style="fill: #4c72b0; fill-opacity: 0.3; stroke: #ffffff; stroke-width: 0.8; stroke-linejoin: miter"/>
   </g>
   <g id="patch_23">
    <path d="M 266.186854 228.96 
L 289.244706 228.96 
L 289.244706 221.137778 
L 266.186854 221.137778 
z
" clip-path="url(#p8000722305)" style="fill: #4c72b0; fill-opacity: 0.3; stroke: #ffffff; stroke-width: 0.8; stroke-linejoin: miter"/>
   </g>
   <g id="patch_24">
    <path d="M 289.244706 228.96 
L 312.302557 228.96 
L 312.302557 228.96 
L 289.244706 228.96 
z
" clip-path="url(#p8000722305)" style="fill: #4c72b0; fill-opacity: 0.3; stroke: #ffffff; stroke-width: 0.8; stroke-linejoin: miter"/>
   </g>
   <g id="line2d_1">
    <path d="M 58.666193 228.959666 
L 95.512408 228.857998 
L 105.338065 228.613596 
L 111.479101 228.261205 
L 116.391929 227.775936 
L 120.076551 227.235753 
L 123.761172 226.49082 
L 127.445794 225.482408 
L 129.902208 224.630534 
L 132.358622 223.60934 
L 134.815037 222.395397 
L 137.271451 220.964454 
L 139.727865 219.291998 
L 142.184279 217.353947 
L 144.640694 215.12745 
L 147.097108 212.591798 
L 149.553522 209.729405 
L 152.009937 206.526827 
L 154.466351 202.975782 
L 156.922765 199.0741 
L 159.37918 194.826565 
L 161.835594 190.245576 
L 165.520215 182.795804 
L 169.204837 174.746875 
L 174.117665 163.333166 
L 186.399737 134.145306 
L 190.084358 126.014139 
L 193.76898 118.470869 
L 196.225394 113.823848 
L 198.681808 109.506389 
L 201.138223 105.527341 
L 203.594637 101.885273 
L 206.051051 98.569253 
L 208.507466 95.560134 
L 210.96388 92.832278 
L 213.420294 90.355603 
L 217.104916 87.041002 
L 220.789537 84.113474 
L 224.474159 81.485471 
L 228.15878 79.101924 
L 231.843402 76.95034 
L 235.528023 75.06541 
L 237.984437 73.995007 
L 240.440852 73.112047 
L 242.897266 72.456792 
L 245.35368 72.074035 
L 247.810095 72.011053 
L 250.266509 72.315413 
L 252.722923 73.032724 
L 255.179337 74.204452 
L 257.635752 75.865884 
L 260.092166 78.044317 
L 262.54858 80.757573 
L 265.004995 84.012869 
L 267.461409 87.806103 
L 269.917823 92.12157 
L 272.374238 96.932117 
L 274.830652 102.199723 
L 277.287066 107.876469 
L 280.971688 117.033183 
L 285.884516 130.093376 
L 298.166588 163.466648 
L 301.851209 172.761444 
L 303.079416 175.722362 
L 303.079416 175.722362 
" clip-path="url(#p8000722305)" style="fill: none; stroke: #dd8452; stroke-width: 2; stroke-linecap: round"/>
   </g>
   <g id="line2d_2">
    <path d="M 58.666193 224.190968 
L 84.458543 221.812666 
L 90.599579 221.0052 
L 95.512408 220.176033 
L 100.425236 219.119191 
L 104.109858 218.136824 
L 107.794479 216.958132 
L 111.479101 215.551589 
L 115.163722 213.885348 
L 118.848344 211.928162 
L 122.532965 209.650463 
L 126.217587 207.025595 
L 129.902208 204.03117 
L 133.586829 200.650499 
L 137.271451 196.874045 
L 140.956072 192.700827 
L 144.640694 188.139697 
L 148.325315 183.21042 
L 152.009937 177.944483 
L 156.922765 170.476802 
L 163.063801 160.624455 
L 176.57408 138.680011 
L 180.258701 133.107652 
L 183.943323 127.910795 
L 187.627944 123.194713 
L 190.084358 120.367706 
L 192.540773 117.827194 
L 194.997187 115.599149 
L 197.453601 113.707141 
L 199.910016 112.171959 
L 202.36643 111.011261 
L 204.822844 110.239253 
L 207.279259 109.866429 
L 209.735673 109.899356 
L 212.192087 110.340514 
L 214.648501 111.188212 
L 217.104916 112.436559 
L 219.56133 114.075513 
L 222.017744 116.090999 
L 224.474159 118.465094 
L 226.930573 121.176282 
L 229.386987 124.199773 
L 231.843402 127.507871 
L 235.528023 132.937087 
L 239.212644 138.828482 
L 244.125473 147.20131 
L 252.722923 162.49366 
L 258.863959 173.260191 
L 263.776787 181.441956 
L 267.461409 187.210835 
L 271.14603 192.602789 
L 274.830652 197.578636 
L 278.515273 202.114043 
L 282.199895 206.198485 
L 285.884516 209.833758 
L 289.569138 213.032174 
L 293.253759 215.814584 
L 296.938381 218.208338 
L 300.623002 220.245311 
L 303.079416 221.422095 
L 303.079416 221.422095 
" clip-path="url(#p8000722305)" style="fill: none; stroke: #4c72b0; stroke-width: 2; stroke-linecap: round"/>
   </g>
   <g id="patch_25">
    <path d="M 45.984375 228.96 
L 45.984375 7.2 
" style="fill: none; stroke: #262626; stroke-linejoin: miter; stroke-linecap: square"/>
   </g>
   <g id="patch_26">
    <path d="M 324.984375 228.96 
L 324.984375 7.2 
" style="fill: none; stroke: #262626; stroke-linejoin: miter; stroke-linecap: square"/>
   </g>
   <g id="patch_27">
    <path d="M 45.984375 228.96 
L 324.984375 228.96 
" style="fill: none; stroke: #262626; stroke-linejoin: miter; stroke-linecap: square"/>
   </g>
   <g id="patch_28">
    <path d="M 45.984375 7.2 
L 324.984375 7.2 
" style="fill: none; stroke: #262626; stroke-linejoin: miter; stroke-linecap: square"/>
   </g>
   <g id="legend_1">
    <g id="patch_29">
     <path d="M 54.384375 50.74875 
L 168.80625 50.74875 
Q 171.20625 50.74875 171.20625 48.34875 
L 171.20625 15.6 
Q 171.20625 13.2 168.80625 13.2 
L 54.384375 13.2 
Q 51.984375 13.2 51.984375 15.6 
L 51.984375 48.34875 
Q 51.984375 50.74875 54.384375 50.74875 
z
" style="fill: #ffffff; opacity: 0.8; stroke: #cccccc; stroke-width: 0.8; stroke-linejoin: miter"/>
    </g>
    <g id="patch_30">
     <path d="M 56.784375 26.589375 
L 80.784375 26.589375 
L 80.784375 18.189375 
L 56.784375 18.189375 
z
" style="fill: #4c72b0; fill-opacity: 0.3; stroke: #ffffff; stroke-width: 0.8; stroke-linejoin: miter"/>
    </g>
    <g id="text_15">
     <!-- New construct -->
     <g style="fill: #262626" transform="translate(90.384375 26.589375) scale(0.12 -0.12)">
      <defs>
       <path id="ArialMT-4e" d="M 488 0 
L 488 4581 
L 1109 4581 
L 3516 984 
L 3516 4581 
L 4097 4581 
L 4097 0 
L 3475 0 
L 1069 3600 
L 1069 0 
L 488 0 
z
" transform="scale(0.015625)"/>
       <path id="ArialMT-77" d="M 1034 0 
L 19 3319 
L 600 3319 
L 1128 1403 
L 1325 691 
Q 1338 744 1497 1375 
L 2025 3319 
L 2603 3319 
L 3100 1394 
L 3266 759 
L 3456 1400 
L 4025 3319 
L 4572 3319 
L 3534 0 
L 2950 0 
L 2422 1988 
L 2294 2553 
L 1622 0 
L 1034 0 
z
" transform="scale(0.015625)"/>
       <path id="ArialMT-20" transform="scale(0.015625)"/>
       <path id="ArialMT-6f" d="M 213 1659 
Q 213 2581 725 3025 
Q 1153 3394 1769 3394 
Q 2453 3394 2887 2945 
Q 3322 2497 3322 1706 
Q 3322 1066 3130 698 
Q 2938 331 2570 128 
Q 2203 -75 1769 -75 
Q 1072 -75 642 372 
Q 213 819 213 1659 
z
M 791 1659 
Q 791 1022 1069 705 
Q 1347 388 1769 388 
Q 2188 388 2466 706 
Q 2744 1025 2744 1678 
Q 2744 2294 2464 2611 
Q 2184 2928 1769 2928 
Q 1347 2928 1069 2612 
Q 791 2297 791 1659 
z
" transform="scale(0.015625)"/>
       <path id="ArialMT-73" d="M 197 991 
L 753 1078 
Q 800 744 1014 566 
Q 1228 388 1613 388 
Q 2000 388 2187 545 
Q 2375 703 2375 916 
Q 2375 1106 2209 1216 
Q 2094 1291 1634 1406 
Q 1016 1563 777 1677 
Q 538 1791 414 1992 
Q 291 2194 291 2438 
Q 291 2659 392 2848 
Q 494 3038 669 3163 
Q 800 3259 1026 3326 
Q 1253 3394 1513 3394 
Q 1903 3394 2198 3281 
Q 2494 3169 2634 2976 
Q 2775 2784 2828 2463 
L 2278 2388 
Q 2241 2644 2061 2787 
Q 1881 2931 1553 2931 
Q 1166 2931 1000 2803 
Q 834 2675 834 2503 
Q 834 2394 903 2306 
Q 972 2216 1119 2156 
Q 1203 2125 1616 2013 
Q 2213 1853 2448 1751 
Q 2684 1650 2818 1456 
Q 2953 1263 2953 975 
Q 2953 694 2789 445 
Q 2625 197 2315 61 
Q 2006 -75 1616 -75 
Q 969 -75 630 194 
Q 291 463 197 991 
z
" transform="scale(0.015625)"/>
       <path id="ArialMT-74" d="M 1650 503 
L 1731 6 
Q 1494 -44 1306 -44 
Q 1000 -44 831 53 
Q 663 150 594 308 
Q 525 466 525 972 
L 525 2881 
L 113 2881 
L 113 3319 
L 525 3319 
L 525 4141 
L 1084 4478 
L 1084 3319 
L 1650 3319 
L 1650 2881 
L 1084 2881 
L 1084 941 
Q 1084 700 1114 631 
Q 1144 563 1211 522 
Q 1278 481 1403 481 
Q 1497 481 1650 503 
z
" transform="scale(0.015625)"/>
      </defs>
      <use xlink:href="#ArialMT-4e"/>
      <use xlink:href="#ArialMT-65" x="72.216797"/>
      <use xlink:href="#ArialMT-77" x="127.832031"/>
      <use xlink:href="#ArialMT-20" x="200.048828"/>
      <use xlink:href="#ArialMT-63" x="227.832031"/>
      <use xlink:href="#ArialMT-6f" x="277.832031"/>
      <use xlink:href="#ArialMT-6e" x="333.447266"/>
      <use xlink:href="#ArialMT-73" x="389.0625"/>
      <use xlink:href="#ArialMT-74" x="439.0625"/>
      <use xlink:href="#ArialMT-72" x="466.845703"/>
      <use xlink:href="#ArialMT-75" x="500.146484"/>
      <use xlink:href="#ArialMT-63" x="555.761719"/>
      <use xlink:href="#ArialMT-74" x="605.761719"/>
     </g>
    </g>
    <g id="patch_31">
     <path d="M 56.784375 43.56375 
L 80.784375 43.56375 
L 80.784375 35.16375 
L 56.784375 35.16375 
z
" style="fill: #dd8452; fill-opacity: 0.3; stroke: #ffffff; stroke-width: 0.8; stroke-linejoin: miter"/>
    </g>
    <g id="text_16">
     <!-- New task -->
     <g style="fill: #262626" transform="translate(90.384375 43.56375) scale(0.12 -0.12)">
      <defs>
       <path id="ArialMT-6b" d="M 425 0 
L 425 4581 
L 988 4581 
L 988 1969 
L 2319 3319 
L 3047 3319 
L 1778 2088 
L 3175 0 
L 2481 0 
L 1384 1697 
L 988 1316 
L 988 0 
L 425 0 
z
" transform="scale(0.015625)"/>
      </defs>
      <use xlink:href="#ArialMT-4e"/>
      <use xlink:href="#ArialMT-65" x="72.216797"/>
      <use xlink:href="#ArialMT-77" x="127.832031"/>
      <use xlink:href="#ArialMT-20" x="200.048828"/>
      <use xlink:href="#ArialMT-74" x="227.832031"/>
      <use xlink:href="#ArialMT-61" x="255.615234"/>
      <use xlink:href="#ArialMT-73" x="311.230469"/>
      <use xlink:href="#ArialMT-6b" x="361.230469"/>
     </g>
    </g>
   </g>
  </g>
 </g>
 <defs>
  <clipPath id="p8000722305">
   <rect x="45.984375" y="7.2" width="279" height="221.76"/>
  </clipPath>
 </defs>
</svg>
